<svg xmlns="http://www.w3.org/2000/svg" width="1403" height="551" viewBox="0 0 1403 551">
    <g fill="none" fill-rule="evenodd" stroke="#000" stroke-linecap="round" stroke-width="3" opacity=".05">
        <path d="M212 162h-16M174 162h-13M147 184h50M150 139h53M147.18 206H147M147.18 298H147M167.18 206H167M167.18 298H167M422.178 275H422M422.178 365H422M442.18 275H442M442.18 365H442M187 206h27M187 298h27M215 184h50M226 139h13M239 162h39M434 162h39M265.426 139H265M147 116h27M199 116h1.798M226 116h53M121 139h.792M138 162H94M520 162h-27M123 184H55M121 206H94M121 298H94M139 229h-31M139 320h-31M161 229h22M161 320h22M200 229h65M200 320h65M238 206h13M238 298h13M279 206h53M279 298h53M291.138 184H291M318 184h27M304 162h27M291 139h94M147 252h92M147 343h92M121 252H94M121 343H94M266 252h13M266 343h13M292 229h39M292 320h39M304 252h.24M304 343h.24M520 252h.238M520 343h.238M332 252h27M332 343h27M358 229h13M358 320h13M358 206h26M358 298h26M355 162h13M405 162h13M369.8 184h-.8M188 93h-27M212 93h53M199 70h24M174 70h-13M134 93.002L81 93M121 116h-13M94 139H55M81 116H67M68 162H29M41 116H2M56 93H29M2 93h.712M420 93h.712M82 229H55M82 320H55M69 206H42M69 298H42M29 229H2M29 320H2M15 206H2M15 298H2M388 229h.18M388 320h.18M414 229h27M414 320h27M403 206h51M403 298h51M470 206h11M470 298h11M468 229h53M468 320h53M507 206h14M507 298h14M2 184h27M521 184h-68M400 184h27M2.728 162H2M389.728 162H389M29 139H2M375 116h-36M402.792 116H402M407 139h13M429 116h39M442 139h14M481 139h39M495 116h27M253 70h27M291 93h27M304 70h65M304 116h13M345 93h53M133 70H94M67 70H2M81 47h1.26M108 47h79M212 47h79M318 47h.662M345 47h75M55 47H42M15 47H2M67 252H2M67 343H2M499 252h-27M499 343h-27M445 252h-65M445 343h-65M147 2h-39M173 2h.932M200 2h65M147 25h92M121 25H94M265 25h13M291 2h39M304 25h.24M332 25h27M357 2h13M82 2H55M29 2H2M67 25H2M389 2h53M469 2h27M520.712 2H520M389 25h39M456 25h65M442.262 47H441M469 47h13M507 47h13M403 70h27M442 93h49M509 93l13 .002M456 70h65M2 275h39M2 365h39M69 275h.674M69 365h.674M94 275h39M94 365h39M161 275h27M161 365h27M461 275h27M461 365h27M504 275h16M504 365h16M212 275h79M212 365h79M332 275h71M332 365h71M688 116h-13M662.18 70H662M681.18 70H681M936.178 2H936M956.18 2H956M739.497 93H780M740 139h13M740.218 116H794M948 116h39M780.426 139H780M662 162h27M714 162h1.798M740 162h53M631 139h.792M633.505 116H607M1096.513 116H1007M634.502 93H570M634 70h-27M653 47h-31M675 47h22M714 47h65M740 70h13M775.498 70H845M806.138 93H806M832 93h27M820 116.002l27-.002M806 139h94M662 25h92M636 25h-27M780 25h13M806 47h39M820 25h.24M1034 25h.238M847 25h27M872 47h13M872 70h26M870 116.002l13-.002M920 116.002l13-.002M883.8 93h-.8M702 184h-27M727 184h53M713 206h24M713 298h24M688 206h-13M688 298h-13M648 184h-53M635 162h-13M609 139h-39M595 162h-14M583 116h-39M556 162h-39M571 184h-27M517 184h.712M933 184h.712M597 47h-27M583 70h-27M544 47h-27M530 70h-13M903 47h.18M929 47h27M918 70h51M985 70h11M982 47h53M1021 70h14M517 93h27M1035 93h-68M915 93h27M516.728 116H516M903.728 116H903M544 139h-27M891 162h-36M916.792 162H916M921 139h13M943 162h39M957 139h14M996 139h82.502M1008 162h80.576M767 206h27M767 298h27M806 184h27M820 206h65M820 298h65M820 162h13M859 184h53M648 206h-39M648 298h-39M582 206h-65M582 298h-65M595 229h1.26M595 320h1.26M622 229h79M622 320h79M727 229h79M727 320h79M833 229h.662M833 320h.662M859 229h75M859 320h75M569 229h-13M569 320h-13M530 229h-13M530 320h-13M582 25h-65M1012 25h-27M958 25h-65M661 275h-39M661 365h-39M688 275h.932M688 365h.932M714 275h65M714 365h65M662 252h92M662 343h92M636 252h-27M636 343h-27M780 252h13M780 343h13M806 275h39M806 365h39M820 252h.24M820 343h.24M847 252h27M847 343h27M872 275h13M872 365h13M597 275h-27M597 365h-27M544 275h-27M544 365h-27M582 252h-65M582 343h-65M904 275h53M904 365h53M982 275h27M982 365h27M1035.712 275H1035M1035.712 365H1035M904 252h39M904 343h39M970 252h65M970 343h65M956.262 229H955M956.262 320H955M982 229h13M982 320h13M1022 229h48.503M1022 320h13M916 206h27M916 298h27M957 184h49M1022 184h13M970 206h131.501M970 298h65M517 2h39M582 2h.674M609 2h39M675 2h27M975 2h27M1019 2h16M727 2h79M847 2h71M1301.178 2H1301M1321.18 2h-.18M1057.465 93H1146M1105 139h13M1120 116h39M1313 116h39M1145.426 139H1145M1105 162h53M1399 116.002l-27-.002M1079 47h65M1064.454 70H1133M1157 70h53M1171.138 93H1171M1197 93h27M1185 116.002l27-.002M1171 139h94M1027 25h92M1145 25h13M1171 47h39M1185 25h.24M1399 25h.238M1212 25h27M1237 47h13M1237 70h26M1235 116.002l13-.002M1285 116.002l13-.002M1248.8 93h-.8M1092 184h53M1298 184h.712M1268 47h.18M1294 47h27M1283 70h51M1350 70h11M1347 47h53M1386 70h14M1400 93h-68M1280 93h27M1268.728 116H1268M1256 162h-36M1281.792 162H1281M1286 139h13M1308 162h39M1322 139h14M1361 139h39M1373 162h27M1132 206h27M1132 298h27M1171 184h27M1185 206h65M1185 298h65M1185 162h13M1224 184h53M1092 229h79M1092 320h79M1198 229h.662M1198 320h.662M1224 229h75M1224 320h75M1377 25h-27M1323 25h-65M1079 275h65M1079 365h65M1027 252h92M1027 343h92M1145 252h13M1145 343h13M1171 275h39M1171 365h39M1185 252h.24M1185 343h.24M1212 252h27M1212 343h27M1237 275h13M1237 365h13M1269 275h53M1269 365h53M1347 275h27M1347 365h27M1400.712 275H1400M1400.712 365H1400M1269 252h39M1269 343h39M1335 252h65M1335 343h65M1321.262 229H1320M1321.262 320H1320M1347 229h13M1347 320h13M1387 229h13M1387 320h13M1281 206h27M1281 298h27M1322 184h49M1387 184h13M1335 206h65M1335 298h65M1340 2h27M1384 2h16M1092 2h79M1212 2h71M212 549h-16M226 526h13M265.426 526H265M147 503h27M121 503h-13M94 526H55M81 503H67M68 549H29M41 503H2M56 480H29M2 480h.712M420 480h.712M2.728 549H2M29 526H2M253 457h27M304 457h65M345 480h53M81 434h1.26M318 434h.662M345 434h75M55 434H42M15 434H2M147 389h-39M173 389h.932M200 389h65M147 412h92M121 412H94M265 412h13M291 389h39M304 412h.24M332 412h27M357 389h13M82 389H55M29 389H2M67 412H2M389 389h53M469 389h27M520.712 389H520M389 412h39M456 412h65M442.262 434H441M469 434h13M507 434h13M403 457h27M662 480h50M662.18 457H662M681.18 457H681M936.178 389H936M956.18 389H956M701 457h27M731 480h50M1096.513 503H1007M636 457h-27M653 434h-31M675 434h22M714 434h65M755 457h13M792 457h53M806.138 480H806M832 480h27M820 503.002l27-.002M662 412h92M636 412h-27M780 412h13M806 434h39M820 412h.24M1034 412h.238M847 412h27M872 434h13M872 457h26M870 503.002l13-.002M883.8 480h-.8M597 434h-27M903 434h.18M985 457h11M982 434h53M1021 457h14M903.728 503H903M891 549h-36M916.792 549H916M820 549h13M582 412h-65M1012 412h-27M958 412h-65M517 389h39M582 389h.674M609 389h39M675 389h27M975 389h27M1019 389h16M727 389h79M847 389h71M1301.178 389H1301M1321.18 389h-.18M1105 526h13M1399 503.002l-27-.002M1079 434h65M1064.454 457H1133M1027 412h92M1145 412h13M1185 412h.24M1399 412h.238M1212 412h27M1350 457h11M1347 434h53M1386 457h14M1400 480h-68M1361 526h39M1373 549h27M1377 412h-27M1323 412h-65M1340 389h27M1384 389h16M1092 389h79M1212 389h71"/>
    </g>
</svg>
